<svg width="98" height="23" viewBox="0 0 98 23" fill="none" xmlns="http://www.w3.org/2000/svg">
<path d="M4.58203 18V15.9492L6.41016 15.5977V3.57422H3.30469L3.11719 5.61328H0.527344V0.9375H15.75V5.61328H13.1484L12.9609 3.57422H9.83203V15.5977L11.6719 15.9492V18H4.58203ZM22.1602 18.2461C20.9414 18.2461 19.8789 17.9805 18.9727 17.4492C18.0742 16.9102 17.375 16.1719 16.875 15.2344C16.3828 14.2969 16.1367 13.2266 16.1367 12.0234V11.5547C16.1367 10.2969 16.3711 9.18359 16.8398 8.21484C17.3086 7.23828 17.9688 6.47266 18.8203 5.91797C19.6797 5.35547 20.6914 5.07812 21.8555 5.08594C23.5664 5.08594 24.875 5.58984 25.7812 6.59766C26.6875 7.59766 27.1406 9.00391 27.1406 10.8164V12.6797H19.6875L19.6641 12.75C19.7266 13.5859 20.0039 14.2734 20.4961 14.8125C20.9883 15.3516 21.6875 15.6211 22.5938 15.6211C23.2188 15.6211 23.8008 15.543 24.3398 15.3867C24.8867 15.2227 25.418 14.9844 25.9336 14.6719L26.8594 16.7812C26.3359 17.2031 25.6758 17.5547 24.8789 17.8359C24.0898 18.1094 23.1836 18.2461 22.1602 18.2461ZM19.7109 10.418H23.9414V10.1133C23.9414 9.34766 23.7812 8.74219 23.4609 8.29688C23.1484 7.84375 22.6328 7.61719 21.9141 7.61719C21.2266 7.61719 20.7031 7.87891 20.3438 8.40234C19.9844 8.91797 19.7617 9.57031 19.6758 10.3594L19.7109 10.418ZM28.5938 18V15.9492L30.2461 15.5977V7.73438L28.418 7.38281V5.32031H33.4219L33.5625 6.99609C33.9688 6.38672 34.4766 5.91797 35.0859 5.58984C35.7031 5.25391 36.4141 5.08594 37.2188 5.08594C38.0312 5.08594 38.7266 5.26562 39.3047 5.625C39.8828 5.98438 40.3203 6.52734 40.6172 7.25391C41.0078 6.57422 41.5156 6.04297 42.1406 5.66016C42.7656 5.27734 43.5 5.08594 44.3438 5.08594C45.5938 5.08594 46.5781 5.51172 47.2969 6.36328C48.0234 7.21484 48.3867 8.51172 48.3867 10.2539V15.5977L50.0391 15.9492V18H43.4883V15.9492L44.9648 15.5977V10.2422C44.9648 9.3125 44.8086 8.66406 44.4961 8.29688C44.1914 7.92969 43.7461 7.74609 43.1602 7.74609C42.6289 7.74609 42.1797 7.89844 41.8125 8.20312C41.4453 8.5 41.1797 8.89453 41.0156 9.38672V15.5977L42.3984 15.9492V18H36.2227V15.9492L37.6055 15.5977V10.2422C37.6055 9.32812 37.4492 8.68359 37.1367 8.30859C36.832 7.93359 36.3789 7.74609 35.7773 7.74609C34.832 7.74609 34.125 8.125 33.6562 8.88281V15.5977L35.1328 15.9492V18H28.5938ZM51.1172 22.875V20.8125L52.7695 20.4609V7.73438L50.9414 7.38281V5.32031H55.9102L56.0742 6.79688C56.4492 6.25 56.9023 5.82812 57.4336 5.53125C57.9648 5.23438 58.5977 5.08594 59.332 5.08594C60.3555 5.08594 61.2305 5.36719 61.957 5.92969C62.6836 6.48438 63.2383 7.26172 63.6211 8.26172C64.0117 9.26172 64.207 10.4297 64.207 11.7656V12.0117C64.207 13.2617 64.0117 14.3555 63.6211 15.293C63.2305 16.2227 62.668 16.9492 61.9336 17.4727C61.207 17.9883 60.332 18.2461 59.3086 18.2461C57.9727 18.2461 56.9297 17.7617 56.1797 16.793V20.4609L57.832 20.8125V22.875H51.1172ZM58.2891 15.6211C59.1641 15.6211 59.7969 15.2969 60.1875 14.6484C60.5859 14 60.7852 13.1211 60.7852 12.0117V11.7656C60.7852 10.5703 60.582 9.60156 60.1758 8.85938C59.7695 8.11719 59.1328 7.74609 58.2656 7.74609C57.3125 7.74609 56.6172 8.15234 56.1797 8.96484V14.5195C56.6094 15.2539 57.3125 15.6211 58.2891 15.6211ZM71.9648 18.2461C70.7461 18.2461 69.6836 17.9805 68.7773 17.4492C67.8789 16.9102 67.1797 16.1719 66.6797 15.2344C66.1875 14.2969 65.9414 13.2266 65.9414 12.0234V11.5547C65.9414 10.2969 66.1758 9.18359 66.6445 8.21484C67.1133 7.23828 67.7734 6.47266 68.625 5.91797C69.4844 5.35547 70.4961 5.07812 71.6602 5.08594C73.3711 5.08594 74.6797 5.58984 75.5859 6.59766C76.4922 7.59766 76.9453 9.00391 76.9453 10.8164V12.6797H69.4922L69.4688 12.75C69.5312 13.5859 69.8086 14.2734 70.3008 14.8125C70.793 15.3516 71.4922 15.6211 72.3984 15.6211C73.0234 15.6211 73.6055 15.543 74.1445 15.3867C74.6914 15.2227 75.2227 14.9844 75.7383 14.6719L76.6641 16.7812C76.1406 17.2031 75.4805 17.5547 74.6836 17.8359C73.8945 18.1094 72.9883 18.2461 71.9648 18.2461ZM69.5156 10.418H73.7461V10.1133C73.7461 9.34766 73.5859 8.74219 73.2656 8.29688C72.9531 7.84375 72.4375 7.61719 71.7188 7.61719C71.0312 7.61719 70.5078 7.87891 70.1484 8.40234C69.7891 8.91797 69.5664 9.57031 69.4805 10.3594L69.5156 10.418ZM83.9648 18.2461C83.0195 18.2461 82.1367 18.1562 81.3164 17.9766C80.5039 17.7969 79.7227 17.5391 78.9727 17.2031L78.9375 13.6172H81.3164L81.7734 15.4453C82.0391 15.5781 82.3281 15.6836 82.6406 15.7617C82.9609 15.8398 83.3242 15.8789 83.7305 15.8789C84.4961 15.8789 85.0352 15.7539 85.3477 15.5039C85.6602 15.2539 85.8164 14.9414 85.8164 14.5664C85.8164 14.2148 85.6484 13.9062 85.3125 13.6406C84.9766 13.3672 84.3164 13.1289 83.332 12.9258C81.8242 12.6133 80.7148 12.1289 80.0039 11.4727C79.3008 10.8164 78.9492 9.97656 78.9492 8.95312C78.9492 8.25781 79.125 7.61719 79.4766 7.03125C79.8359 6.44531 80.3789 5.98047 81.1055 5.63672C81.8398 5.28516 82.7773 5.10938 83.918 5.10938C84.8711 5.10938 85.7422 5.20312 86.5312 5.39062C87.3281 5.57031 87.9961 5.80859 88.5352 6.10547L88.5703 9.57422H86.2031L85.8398 7.91016C85.3867 7.59766 84.8164 7.44141 84.1289 7.44141C83.5352 7.44141 83.0742 7.56641 82.7461 7.81641C82.4258 8.05859 82.2656 8.36719 82.2656 8.74219C82.2656 9.07031 82.4062 9.36719 82.6875 9.63281C82.9766 9.89062 83.6055 10.1289 84.5742 10.3477C86.1445 10.707 87.2891 11.1875 88.0078 11.7891C88.7266 12.3828 89.0859 13.2188 89.0859 14.2969C89.0859 15.4766 88.6562 16.4297 87.7969 17.1562C86.9453 17.8828 85.668 18.2461 83.9648 18.2461ZM95.625 18.2461C94.4453 18.2461 93.5352 17.9219 92.8945 17.2734C92.2617 16.625 91.9453 15.5977 91.9453 14.1914V7.72266H90.1992V5.32031H91.9453V2.21484H95.3555V5.32031H97.6875V7.72266H95.3555V14.1797C95.3555 14.6719 95.457 15.0234 95.6602 15.2344C95.8711 15.4453 96.1562 15.5508 96.5156 15.5508C96.7031 15.5508 96.9062 15.5391 97.125 15.5156C97.3438 15.4844 97.5312 15.4531 97.6875 15.4219L97.9805 17.8945C97.6367 17.9961 97.2578 18.0781 96.8438 18.1406C96.4297 18.2109 96.0234 18.2461 95.625 18.2461Z" fill="black"/>
</svg>
