<svg width="40" height="53" viewBox="0 0 40 53" fill="none" xmlns="http://www.w3.org/2000/svg">
<path d="M33.944 10.6337C32.3616 10.6355 30.8444 11.2649 29.7258 12.3839C28.6069 13.5029 27.9774 15.0201 27.9759 16.6025V31.4696C27.9927 32.5336 27.7978 33.59 27.4022 34.5777C27.0067 35.5655 26.4188 36.4645 25.6724 37.2228C24.9259 37.9812 24.0362 38.5834 23.0548 38.9944C22.0735 39.4054 21.0201 39.6171 19.9562 39.6171C18.8922 39.6171 17.8389 39.4054 16.8575 38.9944C15.8762 38.5834 14.9864 37.9812 14.2401 37.2228C13.4937 36.4645 12.9056 35.5655 12.5102 34.5777C12.1147 33.59 11.9196 32.5336 11.9364 31.4696V16.6025C11.9364 15.0196 11.3076 13.5016 10.1884 12.3823C9.06912 11.2631 7.55108 10.6343 5.96822 10.6343C4.38535 10.6343 2.86731 11.2631 1.74804 12.3823C0.628787 13.5016 0 15.0196 0 16.6025V33.0438C-7.81024e-08 35.6644 0.516179 38.2595 1.51907 40.6808C2.52197 43.102 3.99194 45.3018 5.84503 47.1551C7.69812 49.0081 9.89808 50.4781 12.3193 51.481C14.7405 52.4838 17.3355 53 19.9562 53C22.5769 53 25.1719 52.4838 27.5931 51.481C30.0144 50.4781 32.2142 49.0081 34.0672 47.1551C35.9205 45.3018 37.3905 43.102 38.3932 40.6808C39.3961 38.2595 39.9124 35.6644 39.9124 33.0438V16.6025C39.9106 15.0201 39.2815 13.5029 38.1625 12.3839C37.0436 11.2649 35.5264 10.6355 33.944 10.6337ZM37.3013 33.0426C37.3013 37.6429 35.4737 42.0545 32.2209 45.3073C28.9682 48.5601 24.5564 50.3876 19.9562 50.3876C15.356 50.3876 10.9442 48.5601 7.69138 45.3073C4.43855 42.0545 2.61112 37.6429 2.61112 33.0426V16.6025C2.61876 15.7172 2.9758 14.8707 3.60457 14.2473C4.23331 13.624 5.08283 13.2742 5.96822 13.2742C6.8536 13.2742 7.70312 13.624 8.33186 14.2473C8.96061 14.8707 9.31767 15.7172 9.32531 16.6025V31.4696C9.32531 34.2891 10.4453 36.9932 12.439 38.9869C14.4327 40.9806 17.1367 42.1005 19.9562 42.1005C22.7757 42.1005 25.4798 40.9806 27.4735 38.9869C29.4669 36.9932 30.5871 34.2891 30.5871 31.4696V16.6025C30.5871 15.7122 30.9406 14.8583 31.5703 14.2287C32.2 13.5991 33.0538 13.2454 33.944 13.2454C34.8346 13.2454 35.6884 13.5991 36.318 14.2287C36.9474 14.8583 37.3013 15.7122 37.3013 16.6025V33.0426Z" fill="url(#paint0_linear)"/>
<path d="M18.6507 13.6766V30.8885C18.6507 31.2348 18.7883 31.5668 19.0331 31.8117C19.2779 32.0566 19.61 32.194 19.9563 32.194C20.3025 32.194 20.6346 32.0566 20.8794 31.8117C21.1243 31.5668 21.2618 31.2348 21.2618 30.8885V13.6766C22.9475 13.3518 24.4515 12.4104 25.4803 11.0362C26.5091 9.66202 26.9888 7.95372 26.8256 6.24485C26.6625 4.53598 25.8684 2.9493 24.5981 1.79456C23.3279 0.639834 21.6729 0 19.9563 0C18.2396 0 16.5846 0.639834 15.3144 1.79456C14.0442 2.9493 13.25 4.53598 13.0869 6.24485C12.9238 7.95372 13.4034 9.66202 14.4322 11.0362C15.461 12.4104 16.9651 13.3518 18.6507 13.6766ZM19.9563 2.61392C20.8047 2.61392 21.6341 2.86552 22.3395 3.33689C23.045 3.80827 23.5948 4.47824 23.9195 5.2621C24.2442 6.04596 24.3291 6.9085 24.1636 7.74063C23.998 8.57277 23.5894 9.33711 22.9895 9.93705C22.3895 10.537 21.6251 10.9455 20.793 11.111C19.9608 11.2765 19.0983 11.1915 18.3145 10.8668C17.5307 10.5421 16.8607 9.99219 16.3894 9.28672C15.918 8.58124 15.6665 7.75185 15.6665 6.9034C15.6679 5.76613 16.1203 4.67581 16.9245 3.87166C17.7287 3.06751 18.819 2.61517 19.9563 2.61392Z" fill="url(#paint1_linear)"/>
<defs>
<linearGradient id="paint0_linear" x1="0" y1="31.817" x2="39.9124" y2="31.817" gradientUnits="userSpaceOnUse">
<stop stop-color="#EC441E"/>
<stop offset="1" stop-color="#EE2A4A"/>
</linearGradient>
<linearGradient id="paint1_linear" x1="13.0557" y1="16.097" x2="26.8569" y2="16.097" gradientUnits="userSpaceOnUse">
<stop stop-color="#EC441E"/>
<stop offset="1" stop-color="#EE2A4A"/>
</linearGradient>
</defs>
</svg>
