<svg width="32" height="32" viewBox="0 0 32 32" fill="none" xmlns="http://www.w3.org/2000/svg">
<path d="M25.3333 1.33333H6.66667C5.2 1.33333 4.01333 2.53333 4.01333 3.99999L4 21.24C4 22.16 4.46667 22.9733 5.17333 23.4533L16 30.6667L26.8133 23.4533C27.52 22.9733 27.9867 22.16 27.9867 21.24L28 3.99999C28 2.53333 26.8 1.33333 25.3333 1.33333ZM16 27.4667L6.66667 21.2533V3.99999H25.3333V21.24L16 27.4667ZM13.32 17.5733L9.88 14.12L8 16L13.3333 21.3333L24 10.6667L22.1067 8.77333L13.32 17.5733Z" fill="#404B69"/>
</svg>
