<svg width="32" height="32" viewBox="0 0 32 32" fill="none" xmlns="http://www.w3.org/2000/svg">
<path d="M19 14H24" stroke="#404B69" stroke-width="2" stroke-linecap="round" stroke-linejoin="round"/>
<path d="M19 18H24" stroke="#404B69" stroke-width="2" stroke-linecap="round" stroke-linejoin="round"/>
<path d="M11.5125 18C13.1693 18 14.5125 16.6569 14.5125 15C14.5125 13.3431 13.1693 12 11.5125 12C9.8556 12 8.51245 13.3431 8.51245 15C8.51245 16.6569 9.8556 18 11.5125 18Z" stroke="#404B69" stroke-width="2" stroke-linecap="round" stroke-linejoin="round"/>
<path d="M7.63867 20.9999C7.86062 20.1413 8.36153 19.3807 9.06272 18.8377C9.76391 18.2947 10.6256 18 11.5125 18C12.3994 18 13.2611 18.2946 13.9623 18.8375C14.6636 19.3805 15.1645 20.141 15.3865 20.9997" stroke="#404B69" stroke-width="2" stroke-linecap="round" stroke-linejoin="round"/>
<path d="M27 6H5C4.44772 6 4 6.44772 4 7V25C4 25.5523 4.44772 26 5 26H27C27.5523 26 28 25.5523 28 25V7C28 6.44772 27.5523 6 27 6Z" stroke="#404B69" stroke-width="2" stroke-linecap="round" stroke-linejoin="round"/>
</svg>
