<svg width="26" height="26" viewBox="0 0 26 26" fill="none" xmlns="http://www.w3.org/2000/svg">
<path d="M9.39212 12.6766C10.2349 14.3996 11.6316 15.7899 13.3585 16.6249C13.4848 16.6848 13.6246 16.7107 13.764 16.7002C13.9034 16.6896 14.0377 16.6429 14.1536 16.5647L16.6963 14.8692C16.8087 14.7942 16.9381 14.7485 17.0727 14.7361C17.2073 14.7238 17.3429 14.7452 17.4671 14.7984L22.224 16.8371C22.3856 16.9057 22.5205 17.025 22.6084 17.177C22.6963 17.329 22.7324 17.5054 22.7113 17.6797C22.561 18.8562 21.9869 19.9376 21.0967 20.7213C20.2065 21.5051 19.0611 21.9374 17.875 21.9375C14.2117 21.9375 10.6984 20.4823 8.10809 17.8919C5.51774 15.3016 4.0625 11.7883 4.0625 8.12501C4.06256 6.93893 4.49495 5.79355 5.27869 4.90332C6.06244 4.01309 7.1438 3.43906 8.3203 3.2887C8.4946 3.26761 8.67103 3.30373 8.82301 3.39163C8.97499 3.47952 9.09429 3.61443 9.16294 3.77602L11.2034 8.53706C11.2562 8.66021 11.2777 8.79449 11.266 8.92796C11.2543 9.06144 11.2098 9.18995 11.1364 9.30205L9.44678 11.8837C9.36988 11.9999 9.32442 12.134 9.31484 12.2729C9.30526 12.4119 9.33189 12.551 9.39212 12.6766V12.6766Z" stroke="#F73859" stroke-width="2" stroke-linecap="round" stroke-linejoin="round"/>
</svg>
